<mxfile host="app.diagrams.net" agent="Mozilla/5.0 (Windows NT 10.0; Win64; x64) AppleWebKit/537.36 (KHTML, like Gecko) Chrome/127.0.0.0 Safari/537.36 Edg/127.0.0.0" version="24.7.6">
  <diagram name="第 1 页" id="D9cGVz9jTFCjsDggylRK">
    <mxGraphModel dx="1042" dy="614" grid="1" gridSize="10" guides="1" tooltips="1" connect="1" arrows="1" fold="1" page="1" pageScale="1" pageWidth="827" pageHeight="1169" math="0" shadow="0">
      <root>
        <mxCell id="0" />
        <mxCell id="1" parent="0" />
        <mxCell id="FIMLKUnDo-9JWR2USeZ_-12" value="" style="edgeStyle=orthogonalEdgeStyle;rounded=0;orthogonalLoop=1;jettySize=auto;html=1;fontSize=14;fontStyle=1" edge="1" parent="1" source="FIMLKUnDo-9JWR2USeZ_-1" target="FIMLKUnDo-9JWR2USeZ_-11">
          <mxGeometry relative="1" as="geometry" />
        </mxCell>
        <mxCell id="FIMLKUnDo-9JWR2USeZ_-34" value="" style="edgeStyle=orthogonalEdgeStyle;rounded=0;orthogonalLoop=1;jettySize=auto;html=1;fontSize=14;fontStyle=1" edge="1" parent="1" source="FIMLKUnDo-9JWR2USeZ_-1" target="FIMLKUnDo-9JWR2USeZ_-33">
          <mxGeometry relative="1" as="geometry">
            <Array as="points">
              <mxPoint x="390" y="140" />
              <mxPoint x="710" y="140" />
            </Array>
          </mxGeometry>
        </mxCell>
        <mxCell id="FIMLKUnDo-9JWR2USeZ_-36" value="" style="edgeStyle=orthogonalEdgeStyle;rounded=0;orthogonalLoop=1;jettySize=auto;html=1;fontSize=14;fontStyle=1" edge="1" parent="1" source="FIMLKUnDo-9JWR2USeZ_-1" target="FIMLKUnDo-9JWR2USeZ_-35">
          <mxGeometry relative="1" as="geometry">
            <Array as="points">
              <mxPoint x="390" y="140" />
              <mxPoint x="70" y="140" />
              <mxPoint x="70" y="230" />
            </Array>
          </mxGeometry>
        </mxCell>
        <mxCell id="FIMLKUnDo-9JWR2USeZ_-1" value="初始化相关外设" style="rounded=1;whiteSpace=wrap;html=1;fontSize=14;fontStyle=1" vertex="1" parent="1">
          <mxGeometry x="330" y="20" width="120" height="60" as="geometry" />
        </mxCell>
        <mxCell id="FIMLKUnDo-9JWR2USeZ_-14" value="" style="edgeStyle=orthogonalEdgeStyle;rounded=0;orthogonalLoop=1;jettySize=auto;html=1;fontSize=14;fontStyle=1" edge="1" parent="1" source="FIMLKUnDo-9JWR2USeZ_-11" target="FIMLKUnDo-9JWR2USeZ_-13">
          <mxGeometry relative="1" as="geometry" />
        </mxCell>
        <mxCell id="FIMLKUnDo-9JWR2USeZ_-11" value="进入while循环" style="whiteSpace=wrap;html=1;rounded=1;fontSize=14;fontStyle=1" vertex="1" parent="1">
          <mxGeometry x="330" y="110" width="120" height="60" as="geometry" />
        </mxCell>
        <mxCell id="FIMLKUnDo-9JWR2USeZ_-16" value="" style="edgeStyle=orthogonalEdgeStyle;rounded=0;orthogonalLoop=1;jettySize=auto;html=1;fontSize=14;fontStyle=1" edge="1" parent="1" source="FIMLKUnDo-9JWR2USeZ_-13" target="FIMLKUnDo-9JWR2USeZ_-15">
          <mxGeometry relative="1" as="geometry" />
        </mxCell>
        <mxCell id="FIMLKUnDo-9JWR2USeZ_-17" value="yes" style="edgeLabel;html=1;align=center;verticalAlign=middle;resizable=0;points=[];fontSize=14;fontStyle=1" vertex="1" connectable="0" parent="FIMLKUnDo-9JWR2USeZ_-16">
          <mxGeometry x="-0.648" y="1" relative="1" as="geometry">
            <mxPoint as="offset" />
          </mxGeometry>
        </mxCell>
        <mxCell id="FIMLKUnDo-9JWR2USeZ_-27" style="edgeStyle=orthogonalEdgeStyle;rounded=0;orthogonalLoop=1;jettySize=auto;html=1;exitX=0.5;exitY=1;exitDx=0;exitDy=0;fontSize=14;fontStyle=1" edge="1" parent="1" source="FIMLKUnDo-9JWR2USeZ_-13" target="FIMLKUnDo-9JWR2USeZ_-24">
          <mxGeometry relative="1" as="geometry" />
        </mxCell>
        <mxCell id="FIMLKUnDo-9JWR2USeZ_-13" value="按键按下" style="rhombus;whiteSpace=wrap;html=1;rounded=1;fontSize=14;fontStyle=1" vertex="1" parent="1">
          <mxGeometry x="350" y="200" width="80" height="80" as="geometry" />
        </mxCell>
        <mxCell id="FIMLKUnDo-9JWR2USeZ_-26" style="edgeStyle=orthogonalEdgeStyle;rounded=0;orthogonalLoop=1;jettySize=auto;html=1;exitX=0.5;exitY=1;exitDx=0;exitDy=0;entryX=1;entryY=0.5;entryDx=0;entryDy=0;fontSize=14;fontStyle=1" edge="1" parent="1" source="FIMLKUnDo-9JWR2USeZ_-15" target="FIMLKUnDo-9JWR2USeZ_-24">
          <mxGeometry relative="1" as="geometry" />
        </mxCell>
        <mxCell id="FIMLKUnDo-9JWR2USeZ_-15" value="点阵屏显示" style="whiteSpace=wrap;html=1;rounded=1;fontSize=14;fontStyle=1" vertex="1" parent="1">
          <mxGeometry x="470" y="300" width="80" height="40" as="geometry" />
        </mxCell>
        <mxCell id="FIMLKUnDo-9JWR2USeZ_-38" value="" style="edgeStyle=orthogonalEdgeStyle;rounded=0;orthogonalLoop=1;jettySize=auto;html=1;fontSize=14;fontStyle=1" edge="1" parent="1" source="FIMLKUnDo-9JWR2USeZ_-24" target="FIMLKUnDo-9JWR2USeZ_-37">
          <mxGeometry relative="1" as="geometry" />
        </mxCell>
        <mxCell id="FIMLKUnDo-9JWR2USeZ_-39" value="yes" style="edgeLabel;html=1;align=center;verticalAlign=middle;resizable=0;points=[];fontSize=14;fontStyle=1" vertex="1" connectable="0" parent="FIMLKUnDo-9JWR2USeZ_-38">
          <mxGeometry x="-0.31" y="-1" relative="1" as="geometry">
            <mxPoint as="offset" />
          </mxGeometry>
        </mxCell>
        <mxCell id="FIMLKUnDo-9JWR2USeZ_-41" style="edgeStyle=orthogonalEdgeStyle;rounded=0;orthogonalLoop=1;jettySize=auto;html=1;exitX=0;exitY=0.5;exitDx=0;exitDy=0;entryX=0;entryY=0.75;entryDx=0;entryDy=0;fontSize=14;fontStyle=1" edge="1" parent="1" source="FIMLKUnDo-9JWR2USeZ_-24" target="FIMLKUnDo-9JWR2USeZ_-11">
          <mxGeometry relative="1" as="geometry">
            <Array as="points">
              <mxPoint x="280" y="380" />
              <mxPoint x="280" y="155" />
            </Array>
          </mxGeometry>
        </mxCell>
        <mxCell id="FIMLKUnDo-9JWR2USeZ_-24" value="安全距离内" style="rhombus;whiteSpace=wrap;html=1;rounded=1;fontSize=14;fontStyle=1" vertex="1" parent="1">
          <mxGeometry x="350" y="340" width="80" height="80" as="geometry" />
        </mxCell>
        <mxCell id="FIMLKUnDo-9JWR2USeZ_-33" value="OLED周期性显示" style="rounded=1;whiteSpace=wrap;html=1;fontSize=14;fontStyle=1" vertex="1" parent="1">
          <mxGeometry x="560" y="200" width="120" height="60" as="geometry" />
        </mxCell>
        <mxCell id="FIMLKUnDo-9JWR2USeZ_-35" value="串口中断周期更新距离" style="rounded=1;whiteSpace=wrap;html=1;fontSize=14;fontStyle=1" vertex="1" parent="1">
          <mxGeometry x="100" y="200" width="130" height="60" as="geometry" />
        </mxCell>
        <mxCell id="FIMLKUnDo-9JWR2USeZ_-43" style="edgeStyle=orthogonalEdgeStyle;rounded=0;orthogonalLoop=1;jettySize=auto;html=1;exitX=0;exitY=0.5;exitDx=0;exitDy=0;entryX=0;entryY=0.25;entryDx=0;entryDy=0;fontSize=14;fontStyle=1" edge="1" parent="1" source="FIMLKUnDo-9JWR2USeZ_-37" target="FIMLKUnDo-9JWR2USeZ_-11">
          <mxGeometry relative="1" as="geometry">
            <Array as="points">
              <mxPoint x="260" y="490" />
              <mxPoint x="260" y="125" />
            </Array>
          </mxGeometry>
        </mxCell>
        <mxCell id="FIMLKUnDo-9JWR2USeZ_-37" value="蜂鸣器鸣叫" style="whiteSpace=wrap;html=1;rounded=1;fontSize=14;fontStyle=1" vertex="1" parent="1">
          <mxGeometry x="340" y="460" width="100" height="60" as="geometry" />
        </mxCell>
      </root>
    </mxGraphModel>
  </diagram>
</mxfile>
